<svg xmlns="http://www.w3.org/2000/svg" viewBox="0 0 512.003 512.003"><path d="M68.762 4.195h-.06c-18.261 0-35.482 7.1-48.478 19.985C7.185 37.1 0 54.243 0 72.453c-.009 18.611 7.33 36.053 20.625 49.092 12.894 12.629 30.481 19.721 47.531 19.311.495.009.99.017 1.493.017 17.092 0 34.014-6.963 46.618-19.251 13.286-12.945 20.625-30.319 20.668-48.922.043-18.193-7.074-35.362-20.019-48.358-12.937-12.979-30.038-20.13-48.154-20.147zm33.641 153.746H33.411c-13.713 0-24.875 11.511-24.875 25.651v298.615c0 13.841 11.725 25.532 25.6 25.532h68.267c13.875 0 25.6-11.46 25.6-25.011V183.541c0-13.875-11.724-25.6-25.6-25.6zm291.242-8.533h-17.98c-33.135 0-64.922 14.114-85.53 37.427v-11.827c0-8.457-8.619-17.067-17.067-17.067h-85.333c-7.893 0-17.067 6.997-17.067 16.017v318.404c0 9.054 8.994 15.369 17.067 15.377l93.867.026c8.073 0 17.067-6.315 17.067-15.377V308.435c0-27.75 20.574-49.724 46.839-50.022 13.355-.299 25.975 4.966 35.422 14.43 7.808 7.808 11.605 19.208 11.605 34.859v183.04c0 8.457 8.619 17.067 17.067 17.067h85.333c8.448 0 17.067-8.61 17.067-17.067V270.496c.001-67.9-51.993-121.088-118.357-121.088z"/></svg>