
<svg  xmlns="http://www.w3.org/2000/svg">
    <symbol id="vk" viewBox="0 0 96.496 96.496">
        <g>
            <path d="M92.499,65.178c-2.873-3.446-6.254-6.387-9.453-9.51c-2.886-2.815-3.068-4.448-0.748-7.697
                c2.532-3.546,5.255-6.956,7.81-10.486c2.385-3.299,4.823-6.589,6.078-10.539c0.796-2.513,0.092-3.623-2.485-4.063
                c-0.444-0.077-0.903-0.081-1.355-0.081l-15.289-0.018c-1.883-0.028-2.924,0.793-3.59,2.462c-0.899,2.256-1.826,4.51-2.897,6.687
                c-2.43,4.936-5.144,9.707-8.949,13.747c-0.839,0.891-1.767,2.017-3.169,1.553c-1.754-0.64-2.271-3.53-2.242-4.507l-0.015-17.647
                c-0.34-2.521-0.899-3.645-3.402-4.135l-15.882,0.003c-2.12,0-3.183,0.819-4.315,2.145c-0.653,0.766-0.85,1.263,0.492,1.517
                c2.636,0.5,4.121,2.206,4.515,4.849c0.632,4.223,0.588,8.463,0.224,12.703c-0.107,1.238-0.32,2.473-0.811,3.629
                c-0.768,1.817-2.008,2.187-3.637,1.069c-1.475-1.012-2.511-2.44-3.525-3.874c-3.809-5.382-6.848-11.186-9.326-17.285
                c-0.716-1.762-1.951-2.83-3.818-2.859c-4.587-0.073-9.175-0.085-13.762,0.004c-2.76,0.052-3.583,1.392-2.459,3.894
                c4.996,11.113,10.557,21.917,17.816,31.759c3.727,5.051,8.006,9.51,13.534,12.67c6.265,3.582,13.009,4.66,20.112,4.328
                c3.326-0.156,4.325-1.021,4.479-4.336c0.104-2.268,0.361-4.523,1.48-6.561c1.098-2,2.761-2.381,4.678-1.137
                c0.959,0.623,1.767,1.416,2.53,2.252c1.872,2.048,3.677,4.158,5.62,6.137c2.437,2.48,5.324,3.945,8.954,3.646L93.744,75.5
                c2.264-0.148,3.438-2.924,2.138-5.451C94.969,68.279,93.771,66.703,92.499,65.178z"/>
        </g>
    </symbol>
    <symbol id="git"  viewBox="0 0 24 24">
        <g ><path d="m12.29 21.499c3.73 0 8.94.09 10.835-3.701.715-1.449.875-3.122.875-4.7h-.001c0-2.073-.575-4.047-1.95-5.651.786-2.363.26-3.756-.345-4.948-2.24 0-3.69.42-5.39 1.742-2.746-.653-5.856-.571-8.455.04-1.725-1.336-3.175-1.781-5.44-1.781-.621 1.237-1.136 2.599-.344 4.977-2.676 3.083-2.466 7.566-1.065 10.322 1.97 3.835 7.49 3.7 11.28 3.7zm-5.289-9.99c.95 0 1.865.168 2.8.297 3.418.52 5.215-.297 7.31-.297 2.339 0 3.675 1.915 3.675 4.087 0 4.349-4.015 5.012-7.53 5.012-2.419-.163-9.93.976-9.93-5.012 0-2.172 1.334-4.087 3.675-4.087z"/><path d="m16.655 18.323c1.29 0 1.835-1.692 1.835-2.727s-.545-2.727-1.835-2.727-1.835 1.692-1.835 2.727.545 2.727 1.835 2.727z"/><path d="m7.47 18.323c1.29 0 1.835-1.692 1.835-2.727s-.546-2.726-1.835-2.726-1.835 1.692-1.835 2.727.545 2.726 1.835 2.726z"/>
        </g>
    </symbol>
    <symbol id="in" viewBox="0 0 512.003 512.003">
        <g transform="translate(0 -1)">
            <g>
                <g>
                    <path d="M68.762,5.195h-0.06c-18.261,0-35.482,7.1-48.478,19.985C7.185,38.1,0,55.243,0,73.453
                        c-0.009,18.611,7.33,36.053,20.625,49.092c12.894,12.629,30.481,19.721,47.531,19.311c0.495,0.009,0.99,0.017,1.493,0.017
                        c17.092,0,34.014-6.963,46.618-19.251c13.286-12.945,20.625-30.319,20.668-48.922c0.043-18.193-7.074-35.362-20.019-48.358
                        C103.979,12.363,86.878,5.212,68.762,5.195z"/>
                    <path d="M102.403,158.941H33.411c-13.713,0-24.875,11.511-24.875,25.651v298.615c0,13.841,11.725,25.532,25.6,25.532h68.267
                        c13.875,0,25.6-11.46,25.6-25.011V184.541C128.003,170.666,116.279,158.941,102.403,158.941z"/>
                    <path d="M393.645,150.408h-17.98c-33.135,0-64.922,14.114-85.53,37.427v-11.827c0-8.457-8.619-17.067-17.067-17.067h-85.333
                        c-7.893,0-17.067,6.997-17.067,16.017v318.404c0,9.054,8.994,15.369,17.067,15.377l93.867,0.026
                        c8.073,0,17.067-6.315,17.067-15.377V309.435c0-27.75,20.574-49.724,46.839-50.022c13.355-0.299,25.975,4.966,35.422,14.43
                        c7.808,7.808,11.605,19.208,11.605,34.859v183.04c0,8.457,8.619,17.067,17.067,17.067h85.333c8.448,0,17.067-8.61,17.067-17.067
                        V271.496C512.003,203.596,460.009,150.408,393.645,150.408z"/>
                </g>
            </g>
        </g>
    </symbol> 
</svg>